<?xml version="1.0" encoding="utf-8"?>
<!-- Generator: Adobe Illustrator 18.0.0, SVG Export Plug-In . SVG Version: 6.00 Build 0)  -->
<!DOCTYPE svg PUBLIC "-//W3C//DTD SVG 1.1//EN" "http://www.w3.org/Graphics/SVG/1.1/DTD/svg11.dtd">
<svg version="1.1" xmlns="http://www.w3.org/2000/svg" xmlns:xlink="http://www.w3.org/1999/xlink" x="0px" y="0px"
	 viewBox="0 0 1000 1000" enable-background="new 0 0 1000 1000" xml:space="preserve">
<g id="Calque_1" display="none">
	<g id="Calque_2" display="inline">
	</g>
	<g id="Calque_1_1_" display="inline">
		<path fill="#000100" d="M994.3,691.5c-11.3-35.2-33.4-61.8-65-80.3c-28.9-17.1-60.9-24.4-94.1-25.3c-26.8-0.7-53.5,0.7-80.3,1.1
			c-27.7,0.4-55.3,0.7-83,0.7c-21.4,0-42.4-2-62.9-8.3c-16.5-5.2-30.9-13.6-36.8-31.1c-5.9-17.1-4.5-33.2,8.8-46.5
			c4.3-4.3,8.4-8.6,16-6.3c26.4,8.4,53.5,13.1,81,15.3c39.7,3.2,79.2-0.4,117.8-10.1c23.2-5.7,45.6-14.2,66.3-26.6
			c35.2-21.2,62.3-48.5,70.4-90.7c4.1-21.6,1.6-41.8-9.3-60.9c-12.4-21.7-30.7-37.4-51.7-50.5c-18.3-11.5-38.1-20.1-58.9-25.9
			c-15.4-4.3-31.3-7.9-47.1-10.2c-13.5-2-27.3-2-41.1-2.7c-3.6-0.2-4.8-1.3-4.7-4.8c0.7-10.1,0.9-20.3,2-30.4
			c1.1-10.2,4.3-19.8,10.6-28c7-9.5,23.2-15.1,34.8-6.8c4.8,3.4,9.5,7.4,13.8,11.5c9.2,8.6,18,18.1,27.5,26.4
			c16.7,14.5,37,18,57.5,12.8c28.2-7,44.7-27.1,51.7-55c3.8-14.9,2.2-29.6-2.5-44c-4.5-13.8-13.1-24.4-25.1-32.5
			c-10.1-6.8-21.4-10.6-33-13.1c-23-4.8-45.8-4.1-67.9,3.8c-30.2,10.6-51,31.6-64.3,60.3c-7.7,16.9-12.8,34.7-13.8,53.2
			c-0.7,13.8-1.3,27.8-1.4,41.7c0,3.6-1.3,4.7-4.7,4.8c-13.8,1.1-27.7,2.3-41.5,3.8c-25.7,2.7-50.1,10.1-73.8,20.3
			c-20.3,8.8-39.7,19.2-56.9,33.4c-19.2,15.6-34.5,34.1-42.6,57.8c-1.1,3.2-2,6.6-2.7,9.9c-4.8-9.3-10.4-18.5-16.7-27.1
			c-22.4-30.7-51.4-54.2-85.1-71.1c-19.6-9.9-40.1-17.1-61.8-21.4c-9.5-1.8-19-3.4-28.6-4.1l0,0c-9.2-0.7-4.5-4.7-4.5-4.7l0,0
			l52.1-44.9l69-59.4l68.6-59.1c-5.2,3.6-16.3,11.1-22.4,13.3C409.5,97,363,94.1,263.3,70.6c-80.6-19-116.7,28.9-130.4,59.3
			c-5.2,12.9-9,41.8-7,55.3c60.3-36.5,128.1-10.6,203.3-1.8L277.5,229c-0.5,0.5-6.1,4.8-12.9,5l0,0h-0.2c-25.1,0.9-50.1,3.8-74.5,11
			c-20.3,5.9-39.7,14-57.8,24.6c-33.2,19.6-60.7,45.4-83.2,76.9C24.2,381.1,8.8,419.4,2.7,461.4C-1.4,489.6,0.2,518,5.2,546
			c3.6,19.9,9.5,39.3,17.8,58.2c19,43.8,48.5,79.2,88,105.8c23.9,16,49.9,27.3,77.8,34.5c23.9,6.3,48.3,9.3,72.7,9
			c32.1-0.4,63.6-5.6,93.8-17.4c38.1-14.9,69.9-38.3,95.7-69.5c5.6-6.6,10.6-13.3,15.4-20.3c2,7.4,3.1,15.1,6.1,22.1
			c11.3,25.3,32.5,40.4,57.3,50.8c12.8,5.4,26.2,9.2,40.2,14c-1.6,0.9-2.9,2-4.3,2.5c-17.8,6.8-34.7,15.3-50.1,26.6
			c-19.6,14.2-35.4,31.2-42.9,54.8c-4.8,15.4-4.5,30.5,2.9,45.4c9.3,19.2,25.3,31.1,43.5,40.6c25,13.1,52.1,19.9,79.6,24.1
			c21.7,3.2,43.6,5.2,65.6,6.3c43.6,2,86.9-1.4,129.7-11.5c24.4-5.7,48.1-13.5,70.8-23.9c34.5-16,65.7-36.6,91.1-65.4
			c19.6-22.3,34.1-47.2,40.2-76.7C1001.1,734,1001.1,712.8,994.3,691.5z M648,322.7c1.6-16.5,4.5-32.9,12-48.1
			c8.8-17.8,23-28.4,43.3-28.9c19.9-0.7,36.1,7.2,47.6,24.1c8.8,12.9,13.5,27.5,16.7,42.6c4.7,21.7,5.9,43.8,6.6,65.9
			c-0.9,16.7-1.4,33.6-3.1,50.3c-1.6,15.3-5,30.4-13.1,43.8c-10.8,18-27.1,24.8-47.1,24.8c-25.5,0-41.1-14.5-50.8-36.6
			c-9-20.3-11.5-42-13.3-63.9C644.9,372.1,645.7,347.3,648,322.7z M487.2,563.8c-4.7,5.6-24.4,31.3-47.2,45.1
			c-24.1,11.9-40.8,17.2-65.4,19.8c-21.4,2-42.7,2.5-64.1-1.3c-18.9-3.4-36.6-9.5-53.2-19.4c-37.2-21.9-58.2-55.5-66.8-96.6
			c-3.8-18.1-4.3-37-5.7-55.7c-0.9-11.3-0.4-11.3,11.1-11.3c102.9,0,205.8,0,308.7,0c0.2,0,4.3,0,7.7,4.1
			c14.9,17.1,33,28.2,55.1,35.9c3.2,1.1,6.1,2.7,10.2,4.5c-2.7,1.6-4.1,2.7-5.6,3.4c-21,11.7-39.9,25.1-57.7,41.3
			C514.4,533.6,508.4,538.3,487.2,563.8z M891.5,835.7c-5.7,28.7-25.1,46.2-49.9,58.7c-17.2,8.8-34.8,13.5-54.4,16.9
			c-57.3,8.1-115.8-4.8-115.8-4.8c-27.5-6.8-53.3-17.2-74.7-36.6c-19.2-17.4-30.9-38.8-30.9-64.8c0-21.2,4-41.8,18.7-58.9
			c6.5-7.4,13.5-9.9,23-8.3c26,4.7,52.3,5,78.5,4.3c28.2-0.7,56.2-2.5,84.4-3.2c20.1-0.5,40.1,0.9,59.4,6.8
			c17.1,5.2,32.9,13.3,44.7,26.9C890.3,791.1,896.2,812.3,891.5,835.7z M184.4,426.7c2.2-25.5,2.9-51,6.3-76.3
			c3.4-25.9,10.4-51,25.1-73.1c10.1-14.9,23-26.4,40.9-29.5c27.5-4.7,46.7,3.1,60.9,29.8c9.2,17.4,13.6,36.1,14.7,55.7
			c1.6,31.1,2.5,62.1,4,93c0.2,4.8-1.1,6.5-6.3,6.5c-23.2-0.2-46.3-0.2-69.5-0.2c-23.3,0-46.7-0.2-70,0.2
			C185.9,432.8,183.9,431.8,184.4,426.7z"/>
	</g>
	<g display="inline">
		<path d="M2316.3,782.9c-22.9,0-42.6-8-59.1-24.1c-16.5-16-24.8-36.5-24.8-61.3c0-24.8,8.3-45.3,24.8-61.4
			c16.5-16.1,36.8-24.2,60.7-24.2c17.8,0,33.7,4.4,47.5,13.1c13.9,8.8,24,21.1,30.2,37.2h-33c-9-16.9-23.9-25.3-44.8-25.3
			c-16.9,0-30.6,5.5-41.3,16.6c-10.7,11.1-16,25.7-16,43.9c0,18.2,5.3,32.9,16,43.9c10.7,11.1,24,16.6,39.8,16.6s28.5-4.2,37.9-12.6
			c9.4-8.4,15-19.9,17-34.3h-62.8v-21.4h92.2v21.4c-2.6,20.1-11.6,37-27,50.9C2358.3,776,2339.2,782.9,2316.3,782.9z"/>
	</g>
	<g display="inline">
		<path fill="none" d="M2621.4,753.1c14.5,0,26.2-3.8,34.6-11.4c7.3-6.6,12-15,14.4-25.6h-97.5c2.3,8.5,6.5,15.8,12.3,21.9
			C2595,748.2,2606.8,753.1,2621.4,753.1z"/>
		<path d="M2560.6,694.7h-18.2c0,0.9,0,1.9,0,2.8c0,2.9,0.1,5.8,0.4,8.6h18.2c-0.3-2.8-0.4-5.7-0.4-8.6
			C2560.6,696.6,2560.6,695.7,2560.6,694.7z"/>
		<path d="M2578,650.2c11.6-12,26.7-18.1,44.9-18.1c21.6,0,37.7,8.5,47.7,25.3h22.4c-5.9-11.7-14.3-21.1-25.2-28
			c-13-8.2-28.1-12.4-44.9-12.4c-22.5,0-41.7,7.7-57.2,22.8c-12.5,12.2-20.1,27.3-22.5,45h18.1h0.1
			C2563.5,671,2569.1,659.4,2578,650.2z"/>
		<path d="M2532.4,694.7H2488v11.4h44.6h0.2c-0.2-2.8-0.3-5.7-0.3-8.6C2532.4,696.6,2532.4,695.7,2532.4,694.7z"/>
		<path d="M2571,706.2h111l-0.8,5.7c-2.1,15.6-8.3,28.2-18.6,37.4c-10.3,9.2-24.2,13.9-41.3,13.9c-17.2,0-31.8-6.1-43.4-18.1
			c-7.6-7.9-12.8-17.6-15.4-28.8h-18.4c3.1,15.1,10.3,28.3,21.5,39.1c15.7,15.3,33.9,22.7,55.6,22.7c21.5,0,39.7-6.6,54.1-19.5
			c14.3-12.9,22.9-28.9,25.3-47.5v-16.1h-130.1c0,0.9,0,1.9,0,2.8C2570.6,700.5,2570.7,703.4,2571,706.2z"/>
		<path d="M2621.4,758.1c15.9,0,28.5-4.2,37.9-12.6c9.4-8.4,15-19.9,17-34.3h-109.6c2.1,12.1,7,22.2,14.9,30.3
			C2592.2,752.6,2605.5,758.1,2621.4,758.1z M2670.4,716.2c-2.3,10.6-7.1,19-14.4,25.6c-8.4,7.5-20,11.4-34.6,11.4
			c-14.6,0-26.5-4.9-36.2-15.1c-5.8-6-9.9-13.4-12.3-21.9H2670.4z"/>
		<path d="M2571.6,684.7c1.9-11,6.5-20.3,13.6-27.6c9.8-10.1,22.1-15.1,37.7-15.1c19,0,32.2,7.4,40.4,22.6l1.4,2.6h43.3l-2.7-6.8
			c-6.6-17-17.5-30.3-32.2-39.6c-14.6-9.2-31.5-13.9-50.2-13.9c-25.2,0-46.7,8.6-64.2,25.6c-14.5,14.2-23.1,31.7-25.6,52.1H2478
			v31.4h56c3.3,18,11.6,33.5,24.7,46.3c17.4,16.9,38.5,25.5,62.6,25.5c24,0,44.5-7.4,60.8-22.1c16.2-14.6,25.9-32.8,28.6-54l0-27.1
			H2571.6z M2705.7,711.2c-2.6,20.1-11.6,37-27,50.9c-15.4,13.9-34.5,20.8-57.4,20.8c-22.9,0-42.6-8-59.1-24.1
			c-13.4-13-21.4-28.9-23.9-47.7H2483v-21.4h54.7c1.6-21.3,9.7-39.2,24.5-53.6c16.5-16.1,36.8-24.2,60.7-24.2
			c17.8,0,33.7,4.4,47.5,13.1c13.9,8.8,24,21.1,30.2,37.2h-33c-9-16.9-23.9-25.3-44.8-25.3c-16.9,0-30.6,5.5-41.3,16.6
			c-9.1,9.4-14.3,21.5-15.6,36.1h139.8V711.2z"/>
		<path d="M2581.6,653.6c10.7-11.1,24.4-16.6,41.3-16.6c20.9,0,35.8,8.4,44.8,25.3h33c-6.3-16-16.3-28.4-30.2-37.2
			c-13.9-8.7-29.7-13.1-47.5-13.1c-23.9,0-44.1,8.1-60.7,24.2c-14.8,14.4-22.9,32.3-24.5,53.6h28.2
			C2567.3,675.1,2572.5,663.1,2581.6,653.6z M2543.2,684.7c2.4-17.6,9.9-32.8,22.5-45c15.5-15.1,34.7-22.8,57.2-22.8
			c16.8,0,31.9,4.2,44.9,12.4c10.9,6.8,19.3,16.2,25.2,28h-22.4c-10-16.8-26-25.3-47.7-25.3c-18.2,0-33.3,6.1-44.9,18.1
			c-8.9,9.2-14.4,20.8-16.5,34.6h-0.1H2543.2z"/>
		<path d="M2565.6,697.6c0-2.7,0.1-5.3,0.4-7.8h-28.2c-0.2,2.6-0.3,5.2-0.3,7.8c0,4.7,0.3,9.2,0.9,13.6h28.4
			C2565.9,706.9,2565.6,702.3,2565.6,697.6z M2542.8,706.2c-0.2-2.8-0.4-5.7-0.4-8.6c0-0.9,0-1.9,0-2.8h18.2c0,0.9,0,1.9,0,2.8
			c0,2.9,0.1,5.8,0.4,8.6H2542.8z"/>
		<path d="M2565.6,697.6c0,4.8,0.4,9.3,1.1,13.6h109.6c-1.9,14.4-7.6,25.9-17,34.3c-9.4,8.4-22,12.6-37.9,12.6s-29.2-5.5-39.8-16.6
			c-7.9-8.2-12.8-18.3-14.9-30.3h-28.4c2.5,18.8,10.5,34.7,23.9,47.7c16.5,16.1,36.2,24.1,59.1,24.1c22.9,0,42-6.9,57.4-20.8
			c15.4-13.9,24.4-30.9,27-50.9v-21.4h-139.8C2565.7,692.3,2565.6,694.9,2565.6,697.6z M2700.7,694.7v16.1
			c-2.5,18.6-11,34.6-25.3,47.5c-14.4,13-32.6,19.5-54.1,19.5c-21.7,0-39.9-7.4-55.6-22.7c-11.1-10.8-18.4-23.9-21.5-39.1h18.4
			c2.6,11.2,7.8,20.9,15.4,28.8c11.6,12,26.2,18.1,43.4,18.1c17.1,0,31-4.7,41.3-13.9c10.3-9.2,16.5-21.8,18.6-37.4l0.8-5.7h-111
			c-0.3-2.8-0.5-5.6-0.5-8.6c0-0.9,0-1.9,0-2.8H2700.7z"/>
		<path d="M2537.7,689.7H2483v21.4h55.3c-0.6-4.4-0.9-8.9-0.9-13.6C2537.4,694.9,2537.5,692.3,2537.7,689.7z M2532.6,706.2H2488
			v-11.4h44.4c0,0.9,0,1.9,0,2.8c0,2.9,0.1,5.8,0.3,8.6H2532.6z"/>
	</g>
	
		<image display="inline" overflow="visible" width="1240" height="496" xlink:href="DC670FB2.jpg"  transform="matrix(1 0 0 1 1763 -86)">
	</image>
	<path display="inline" d="M2307,689.3v21.4h-164.2v50.8h57.8v21.2h-57.8v52.7h65v21.4h-92.4V689.3H2307z"/>
	<g display="inline">
		<path fill="none" d="M-1447.1,1928.9c0.1-0.7,0.1-1.6,0.1-2.6c0-0.9-0.1-1.8-0.1-2.7c-0.2-43.1-1.4-70.6-3.9-92
			c-1.2-19-5.7-36.1-14.6-53c-14.2-26.8-33.4-34.5-60.9-29.8c-4.6,0.8-8.9,2.1-12.9,4c-40.6,17.5-62.1,81.1-62.1,185h154.5
			C-1447.1,1935.1-1447.1,1931.5-1447.1,1928.9z"/>
		<path d="M-1273.4,2049.9c-42.4,65.7-86.9,88.9-167.7,88.9c-58.6,0-111.1-27.3-136.3-71.7c-18.2-30.3-25.3-57.6-25.3-111.2h2.8
			h330.2h3.3c-5.5-40.8-14.4-74.6-29.1-100.7c-4.2-7.4-8.9-14.8-14.3-22.5c-30.2-41.1-75.2-72-124.8-87.6c-0.5-0.2-1-0.3-1.5-0.5
			c-1.1-0.3-2.2-0.7-3.2-1c-0.5-0.1-0.9-0.3-1.4-0.4c-14.1-4.1-28.6-6.9-43.1-8.4c-1.4-0.1-2.9-0.3-4.3-0.4c-0.3,0-0.6-0.1-0.9-0.1
			c-8.2-0.9-3.8-4.6-3.8-4.6l52.1-44.9l69-59.4l52.4-43.6l-10.6-5c-47.4,24-103.6,14.1-190.1-6.3c-80.6-19-116.7,28.9-130.4,59.3
			c-5.2,12.9-9,41.8-7,55.3c60.3-36.5,120.4-10.6,195.6-1.8l-51.7,45.6c-0.5,0.5-5.4,4.3-11.6,4.9h2
			c-71.6,1.8-122.3,22.2-172.4,65.5c-58.6,51.5-93.9,124.2-93.9,200c0,152.5,111.1,265.6,265.6,265.6c78.8,0,147.5-31.3,193.9-87.9
			c5.6-7,10.7-13.7,15.5-20.4c19.4-27.3,33.4-55,51.2-102.8L-1273.4,2049.9z M-1539.5,1752.8c4-1.8,8.3-3.2,12.9-4
			c27.5-4.7,46.7,3.1,60.9,29.8c8.9,16.9,13.4,34.1,14.6,53c2.5,21.3,3.7,48.8,3.9,92c0,0.9,0.1,1.8,0.1,2.7c0,1,0,1.9-0.1,2.6
			c0,2.6,0,6.1,0,8.8h-154.5C-1601.6,1833.9-1580.1,1770.2-1539.5,1752.8z"/>
	</g>
	<g display="inline">
		<path d="M709.4,207.6c0-87,49.4-141.3,119.6-141.3c54.4,0,90.9,24.7,90.9,76.1c0,39.5-31.6,73.1-67.2,73.1
			c-24.7,0-39.5-6.9-61.3-30.6c-20.8-21.7-27.7-26.7-38.5-25.7c-16.8,1-26.7,13.8-30.6,35.6c-1,7.9-2,16.8-2,37.6
			c115.6-1,214.5,60.3,214.5,130.5c0,86-96.9,148.3-232.3,148.3c-34.6,0-72.2-5.9-112.7-17.8C575,505.1,569,515,569,528.8
			c0,39.5,30.6,58.3,112.7,58.3c20.8,0,39.5,0,70.2-1c24.7-1,45.5-2,64.2-2c53.4,0,95.9,11.9,127.5,35.6
			c34.6,25.7,56.3,67.2,56.3,105.8c0,111.7-133.4,207.6-309.4,207.6c-133.4,0-216.5-35.6-220.4-93.9c-2-38.5,32.6-82,102.8-106.8
			c-72.2-15.8-107.7-50.4-107.7-101.8c0-51.4,35.6-100.8,114.7-142.3c-28.7-9.9-41.5-16.8-56.3-29.7c-23.7-19.8-38.5-51.4-38.5-79.1
			c0-50.4,36.6-92.9,101.8-121.6c36.6-16.8,68.2-22.7,122.6-25.7V207.6z M566.1,803.6c0,66.2,74.1,110.7,180.9,110.7
			c85,0,146.3-38.5,146.3-92.9c0-47.4-39.5-83-115.6-83c-8.9,0-28.7,1-50.4,2c-21.7,1-39.5,2-49.4,2c-33.6,0-43.5-1-82-5.9
			C574,751.2,566.1,776.9,566.1,803.6z M646.1,367.7c0,88,21.7,129.5,67.2,129.5c20.8,0,40.5-11.9,47.4-29.7
			c9.9-21.7,12.9-45.5,12.9-92.9c0-84-22.7-129.5-67.2-129.5C663.9,245.2,646.1,280.7,646.1,367.7z"/>
	</g>
	
		<text transform="matrix(1 0 0 1 -2419.7222 616.9735)" display="inline" font-family="'CaslonGraphiqueSH-Regular'" font-size="1181.5895">g</text>
</g>
<g id="Calque_2_1_">
	<path fill="#FFFFFF" d="M943.7,620c-31.6-23.7-74.1-35.6-127.4-35.6c-18.8,0-39.5,1-64.2,2c-30.6,1-49.4,1-70.1,1
		c-82,0-112.6-18.8-112.6-58.3c0-13.8,10.4-22.7,25.2-34.6c40.5,11.9,73.5,16.8,108.1,16.8c135.3,0,232.1-62.2,232.1-148.2
		c0-70.1-98.8-131.4-214.4-130.4c0-20.7,1-29.6,2-37.5c4-21.7,13.8-34.6,30.6-35.6c10.9-1,17.8,4,38.5,25.7
		c21.7,23.7,36.5,30.6,61.2,30.6c35.6,0,67.2-33.6,67.2-73.1c0-51.4-36.5-76.1-90.9-76.1c-70.1,0-125,54.3-125,141.3v24.7
		c-54.3,3-80.4,8.9-117,25.7c-55.3,24.3-90,58.6-99.3,99.2c-1-2.1-2.1-4.1-3.2-6c-4.1-7.3-8.8-14.6-14-22
		c-29.6-40.3-73.8-70.6-122.4-85.9c-0.5-0.2-1-0.3-1.5-0.5c-1.1-0.3-2.1-0.6-3.2-1c-0.4-0.1-0.9-0.3-1.4-0.4
		c-13.9-4-28-6.8-42.3-8.2c-1.4-0.1-2.8-0.3-4.3-0.4c-0.3,0-0.6-0.1-0.9-0.1c-8.1-0.8-3.7-4.5-3.7-4.5l51.1-44l67.6-58.3l51.4-42.8
		l-10.4-4.9c-46.5,23.6-101.7,13.8-186.5-6.2c-79.1-18.7-114.5,28.4-127.9,58.1c-5.1,12.7-8.8,41-6.9,54.3
		c59.2-35.8,118-10.4,191.9-1.8l-50.7,44.7c-0.5,0.5-5.3,4.2-11.4,4.8h2c-70.2,1.8-120,21.8-169.1,64.2C34.7,347.4,0,418.8,0,493.1
		c0,149.6,109,260.6,260.5,260.6c77.3,0,144.6-30.7,190.2-86.2c5.5-6.8,10.5-13.4,15.2-20c0.3-0.4,0.5-0.8,0.8-1.2
		c6.6,42.9,41.9,72.2,106.5,86.4c-70.1,24.7-104.7,68.2-102.7,106.7c4,58.3,86.9,93.8,220.3,93.8c175.8,0,309.2-95.8,309.2-207.4
		C1000,687.2,978.3,645.7,943.7,620z M760.9,464.4c-6.9,17.1-26.7,28.6-47.4,28.6c-45.4,0-67.2-40-67.2-124.8
		c0-83.8,17.8-118.1,60.3-118.1c44.5,0,67.2,43.8,67.2,124.8C773.8,420.6,770.8,443.5,760.9,464.4z M208.1,559.4
		c-17.8-29.7-24.8-56.5-24.8-109h2.8H510h3.2c-0.1-0.7-0.2-1.4-0.3-2.1c3.4,3.8,7.1,7.4,11,10.7c14.8,12.8,27.7,19.8,56.3,29.6
		c-24,12.6-44,26-60.2,39.9l0,0c-0.1,0-3,2.3-8.2,7.4c-4.9,4.7-9.4,9.4-13.5,14.1c-3.6,4-7.7,8.7-12.1,14
		c-4.7,5.6-24.4,31.2-47.2,45.1c-24,11.8-43.9,17-68.4,19.5c-9,0.8-18.6,1.2-28.7,1.2C284.3,629.8,232.8,603,208.1,559.4z
		 M747.1,905.9c-106.7,0-180.8-36-180.8-102.1c0-26.7,7.9-52.4,29.6-67.2c38.5,4.9,48.4,5.9,82,5.9c9.9,0,27.7-1,49.4-2
		c21.7-1,41.5-2,50.4-2c76.1,0,115.6,35.6,115.6,83C893.3,875.9,829,905.9,747.1,905.9z M245.4,253.3c3.9-1.8,8-3.1,12.5-3.8
		c26.6-4.5,45.3,3,59,28.9c8.6,16.4,13,33,14.2,51.4c2.5,20.7,3.6,47.4,3.8,89.2c0,0.9,0.1,1.7,0.1,2.6c0,1,0,1.8-0.1,2.5
		c0,2.5,0,6,0,8.5H185.1C185.1,332,206,270.2,245.4,253.3z"/>
</g>
</svg>
